PathFileType  4	(X/Y/Z) C:\Users\antoi\Documents\MyRepositories\mobilecap\ResultsAnalysis
DataRate	CameraRate	NumFrames	NumMarkers	Units	OrigDataRate	OrigDataStartFrame	OrigNumFrames
100.0	100.0	7	51	mm	100.0	68	181
Frame#	Time	r_knee			r_shank_antsup			r_ankle			r_calc			r_5meta			r_toe			L_knee			L_shank_antsup			L_ankle			L_calc			L_5meta			L_toe			r_sh2			r_sh3			r_sh4			L_sh2			L_sh3			r_thigh1			r_thigh2			r_thigh3			r_thigh4			r_thigh5			L_thigh1			L_thigh2			L_thigh3			L_thigh4			r.ASIS			r.PSIS			L.ASIS			L.PSIS			C7			R_Shoulder			L_Shoulder			R_Sternum			L_Sternum			R_humerus			R_elbow_med			R_elbow_lat			R_forearm			R_wrist_radius			R_wrist_ulna			L_humerus			L_elbow_med			L_elbow_lat			L_forearm			L_wrist_radius			L_wrist_ulna			R_HJC			L_HJC			R_HJC_reg			L_HJC_reg			
		X1	Y1	Z1	X2	Y2	Z2	X3	Y3	Z3	X4	Y4	Z4	X5	Y5	Z5	X6	Y6	Z6	X7	Y7	Z7	X8	Y8	Z8	X9	Y9	Z9	X10	Y10	Z10	X11	Y11	Z11	X12	Y12	Z12	X13	Y13	Z13	X14	Y14	Z14	X15	Y15	Z15	X16	Y16	Z16	X17	Y17	Z17	X18	Y18	Z18	X19	Y19	Z19	X20	Y20	Z20	X21	Y21	Z21	X22	Y22	Z22	X23	Y23	Z23	X24	Y24	Z24	X25	Y25	Z25	X26	Y26	Z26	X27	Y27	Z27	X28	Y28	Z28	X29	Y29	Z29	X30	Y30	Z30	X31	Y31	Z31	X32	Y32	Z32	X33	Y33	Z33	X34	Y34	Z34	X35	Y35	Z35	X36	Y36	Z36	X37	Y37	Z37	X38	Y38	Z38	X39	Y39	Z39	X40	Y40	Z40	X41	Y41	Z41	X42	Y42	Z42	X43	Y43	Z43	X44	Y44	Z44	X45	Y45	Z45	X46	Y46	Z46	X47	Y47	Z47	X48	Y48	Z48	X49	Y49	Z49	X50	Y50	Z50	X51	Y51	Z51	

68	0.67000000	344.61300	469.18650	-33.73434	333.35980	343.52740	-57.56857	164.39131	122.39012	-100.21857	107.22325	100.68874	-153.57056	259.02181	36.57157	-78.18014	300.46862	48.16069	-120.92803	664.39990	463.05207	-314.64045	734.72266	388.01916	-264.48895	776.56227	90.19021	-271.68701	746.04354	39.62141	-221.78450	910.20692	89.95497	-277.34594	929.66370	131.84082	-228.26645	284.14121	246.83437	-80.64601	278.43532	360.03346	-9.02623	213.44544	273.53504	-42.57036	686.16261	385.00498	-338.27375	723.03070	268.92093	-341.78769	532.87562	733.88664	-22.20129	506.60743	625.92744	-26.00971	449.78295	613.86636	12.03927	429.82139	753.30467	21.57617	399.62739	641.88332	15.88528	611.10708	752.12833	-338.02197	672.58830	631.48749	-322.01503	516.89594	706.71099	-376.45901	580.07745	581.27514	-355.63569	580.57701	901.88093	-51.36827	401.90278	954.87893	-130.94287	593.17197	905.11432	-297.55431	402.75212	945.79994	-246.86049	447.94749	1400.22395	-154.13212	511.76292	1354.82702	-10.81037	488.82535	1375.45914	-320.41908	569.41668	1336.48273	-149.50135	565.69727	1337.45554	-194.22048	530.50053	1225.77172	49.97337	456.46771	1029.14381	3.00330	480.69395	1036.12795	72.89290	541.59956	926.11451	94.04933	586.39374	831.62978	96.35448	550.65615	820.39422	108.16670	474.05791	1233.47420	-399.85383	370.28438	1055.72909	-355.36487	373.01273	1074.86578	-425.27276	410.56912	986.82310	-468.11120	434.89669	860.27256	-477.60873	409.91271	857.93984	-495.63124	489.81355	834.47669	-83.02845	504.31585	829.80150	-271.78786	506.74568	847.40927	-81.72690	507.93777	834.70493	-243.94163	
69	0.68000000	351.53270	469.00971	-34.11824	338.60308	343.47149	-57.49697	166.32377	124.62662	-99.82369	108.93034	103.88562	-153.15383	259.42117	36.74522	-77.94535	301.08541	47.82310	-120.71621	673.08433	461.03854	-313.90392	742.14774	385.32451	-263.20557	779.92998	87.59558	-270.62669	747.70483	39.14554	-220.91850	913.35707	83.76615	-275.30468	934.19256	124.75571	-225.89578	287.92431	247.56753	-80.34889	283.85023	361.17417	-9.24239	217.44355	275.63941	-42.81012	694.06048	382.95490	-337.29859	729.22914	266.49870	-340.53990	542.17602	732.01008	-21.97636	514.84770	624.33183	-25.69414	457.54909	612.79203	12.33945	438.58151	752.45034	21.23475	407.62112	641.33702	14.99901	622.80448	750.99116	-337.59057	683.14942	629.81478	-321.46626	529.02613	706.77686	-377.01933	590.21247	580.43595	-355.44978	591.49040	899.83312	-50.86764	413.41390	953.78402	-131.22954	605.26050	904.25747	-297.33704	414.65200	945.34084	-247.17895	457.12306	1399.35938	-157.33592	523.10214	1355.99702	-14.26996	496.38770	1373.02610	-323.83370	579.46028	1336.57265	-153.49149	574.76458	1336.84075	-198.12921	543.07832	1227.30831	47.17290	468.31408	1030.46786	2.28281	493.53159	1037.75081	71.78176	554.81104	927.82222	92.67745	599.72312	833.43566	94.96864	564.13339	822.21314	107.18705	481.55331	1230.37102	-401.89836	378.84175	1052.61974	-354.90072	380.74248	1071.35668	-425.01100	416.78142	983.17755	-468.27073	439.56657	856.32432	-477.87002	414.48203	854.22619	-495.27417	500.66302	832.88319	-83.49152	516.02841	829.11010	-272.20528	517.68921	845.62076	-81.83991	519.42799	833.78783	-244.35390	
70	0.69000000	358.81832	468.84620	-34.67658	344.21083	343.46059	-57.55404	168.53859	127.09052	-99.50806	110.95165	107.37382	-152.81042	259.92116	36.95807	-77.75486	301.77901	47.52031	-120.50078	680.80005	459.03404	-313.74851	749.35586	383.04172	-262.50000	783.52734	85.36854	-269.53752	749.55540	39.53629	-219.95105	916.48542	77.62033	-273.29036	938.93473	117.66523	-223.56658	292.04762	248.39479	-80.15412	289.65989	362.42149	-9.58192	221.85672	277.88291	-43.14192	701.21353	380.93885	-336.55972	734.91070	264.16924	-339.36977	551.73206	730.17237	-21.79504	523.42687	622.76564	-25.36988	465.66732	611.77515	12.43647	447.51013	751.67856	20.74271	415.97081	640.83379	14.01619	634.26915	749.81056	-337.64667	693.08137	627.89119	-321.60474	540.30949	706.97042	-377.31450	599.45626	579.65876	-355.38826	602.70292	897.75698	-50.35993	425.18830	952.76951	-131.55953	617.48027	903.42167	-297.16866	426.71185	945.11598	-247.58030	466.32344	1398.61830	-160.50917	534.50406	1357.29007	-17.75807	504.07482	1370.64671	-327.20591	589.63278	1336.81662	-157.48916	583.84606	1336.33540	-202.02579	555.80780	1228.93632	44.27031	480.12264	1031.95985	1.55222	506.38590	1039.51005	70.61813	567.98965	929.61362	91.20187	613.01449	835.32041	93.44394	577.57434	824.11984	106.05821	489.18670	1227.33488	-403.90507	387.63696	1049.61177	-354.36538	388.65736	1067.92957	-424.69181	423.22840	979.62203	-468.36840	444.63993	852.44225	-478.11170	419.42911	850.67098	-494.82820	511.67987	831.34623	-84.02741	527.86265	828.51784	-272.69438	528.90763	843.70594	-81.96220	531.04880	832.96336	-244.82142	
71	0.70000000	366.59785	468.69179	-35.41912	350.30262	343.46396	-57.74334	171.08834	129.80583	-99.20640	113.32362	111.20260	-152.50170	260.55116	37.20209	-77.60347	302.55551	47.26165	-120.29234	687.79819	457.33036	-314.15926	756.45152	381.26908	-262.43108	787.27644	83.55842	-268.57040	751.63035	40.57399	-218.99111	919.54278	71.56711	-271.50461	943.79718	110.63707	-221.49591	296.59287	249.29500	-80.05339	295.99279	363.74414	-10.00113	226.79295	280.25055	-43.52155	707.76993	379.15064	-336.15003	740.22595	262.10011	-338.43583	561.61309	728.41433	-21.72712	532.45235	621.25691	-25.10908	474.27970	610.80596	12.27168	456.75220	750.97858	20.03889	424.76760	640.34090	13.00329	645.41905	748.78754	-338.20361	702.42508	625.99111	-322.40873	550.59029	707.34708	-377.29162	607.89209	579.11293	-355.45243	614.21134	895.71573	-49.90420	437.15691	951.88130	-131.88954	629.71461	902.70932	-297.07722	438.81628	945.17355	-248.01300	475.58572	1398.04413	-163.68636	545.92622	1358.73959	-21.27076	511.89612	1368.34397	-330.54065	599.88420	1337.23518	-161.47506	592.99908	1335.98383	-205.90599	568.60424	1230.70264	41.28684	491.88613	1033.64864	0.81103	519.23833	1041.44205	69.39619	581.11657	931.52992	89.61500	626.25283	837.31539	91.77223	590.96730	826.14146	104.77461	496.95695	1224.39197	-405.87473	396.71905	1046.73170	-353.78784	396.75443	1064.60823	-424.31166	429.90751	976.17538	-468.41099	450.14142	848.66865	-478.32522	424.77008	847.27254	-494.31476	522.85261	829.91904	-84.64258	539.72358	828.10406	-273.26805	540.38829	841.74329	-82.11866	542.72167	832.31542	-245.34266	
72	0.71000000	375.01939	468.52195	-36.34200	357.00479	343.44082	-58.04698	174.02045	132.77696	-98.84551	116.08599	115.41352	-152.16920	261.32425	37.47835	-77.47594	303.40916	47.04962	-120.10637	694.44538	456.16469	-315.03474	763.50166	380.01560	-262.95989	790.99421	82.15725	-267.85082	753.83781	41.98207	-218.13959	922.41101	65.67224	-270.15010	948.58793	103.75455	-219.90949	301.64158	250.24116	-80.01953	302.97499	365.10230	-10.44729	232.35453	282.72129	-43.89634	713.95455	377.74040	-336.13530	745.34736	260.41407	-337.88113	571.89123	726.77211	-21.85909	542.03189	619.82993	-25.01935	483.53393	609.85448	11.81348	466.45682	750.31275	19.09444	434.11940	639.81111	11.99124	656.21344	748.13189	-339.22811	711.32789	624.42287	-323.78764	559.96209	708.00348	-377.03723	615.74733	578.95996	-355.64363	625.99868	893.78062	-49.58197	449.23233	951.16024	-132.15571	641.84575	902.25589	-297.10487	450.84872	945.54624	-248.39248	484.95107	1397.67118	-166.91057	557.34034	1360.38107	-24.80914	519.85656	1366.14791	-333.83944	610.14584	1337.82322	-165.42914	602.29118	1335.81637	-209.76626	581.36356	1232.66604	38.26474	503.59032	1035.57981	0.05791	532.06787	1043.59720	68.11232	594.17650	933.62587	87.90631	639.41895	839.46563	89.94321	604.29153	828.32211	103.33143	504.86388	1221.57898	-407.80568	406.13684	1044.00050	-353.19396	405.04695	1061.41974	-423.86651	436.82720	972.86606	-468.40060	456.09479	845.06373	-478.50168	430.50768	844.03326	-493.75344	534.18123	828.64932	-85.34796	551.51572	827.96397	-273.94410	552.10399	839.83565	-82.36114	554.37748	831.93674	-245.93754	
73	0.72000000	384.23917	468.28016	-37.41897	364.43175	343.34175	-58.42836	177.37911	135.99433	-98.36000	119.28167	120.03698	-151.74620	262.24092	37.79671	-77.35014	304.32020	46.88029	-119.96079	701.10275	455.64367	-316.22817	770.50744	379.21099	-263.95546	794.48167	81.11744	-267.44397	756.02058	43.51316	-217.47071	924.97687	60.05555	-269.34952	953.08696	97.15521	-218.95143	307.26923	251.20233	-80.01074	310.72131	366.45058	-10.87330	238.62814	285.27264	-44.21802	720.02060	376.78854	-336.54088	750.44666	259.17310	-337.79112	582.61855	725.26920	-22.27310	552.25435	618.49761	-25.21565	493.55548	608.87804	11.05538	476.73946	749.62102	17.93395	444.13479	639.18328	10.97427	666.66932	748.01179	-340.64083	720.00701	623.44955	-325.59002	568.73047	709.03486	-376.75268	623.34152	579.31213	-355.98326	638.03466	892.02051	-49.48277	461.32916	950.63162	-132.28193	653.76917	902.19711	-297.30017	462.71158	946.23806	-248.61443	494.45277	1397.51282	-170.21822	568.73147	1362.24465	-28.38108	527.95789	1364.08971	-337.10163	620.33935	1338.54707	-169.33384	611.76723	1335.83696	-213.60286	593.98071	1234.88564	35.25693	515.21384	1037.80464	-0.70830	544.84991	1046.02778	66.76698	607.15709	935.95805	86.06652	652.48753	841.82047	87.94699	617.51935	830.71408	101.72827	512.90456	1218.93485	-409.69602	415.91475	1041.42463	-352.59756	413.55127	1058.39374	-423.35625	444.00263	969.72952	-468.33756	462.51540	841.68518	-478.63422	436.63774	840.96649	-493.16069	545.67710	827.57062	-86.15230	563.15563	828.18383	-274.73660	564.01801	838.09238	-82.75355	565.96155	831.90690	-246.63779	
74	0.73000000	394.40479	467.87554	-38.60199	372.66916	343.11079	-58.84348	181.20836	139.44401	-97.70537	122.95512	125.09341	-151.17212	263.29976	38.17532	-77.20188	305.26475	46.74781	-119.87121	708.01976	455.72606	-317.59743	777.40079	378.73763	-265.22142	797.58871	80.37274	-267.34734	758.01494	44.99915	-217.02960	927.17885	54.88448	-269.09965	957.10214	91.02503	-218.62734	313.53948	252.14610	-79.98294	319.33076	367.73949	-11.25345	245.68073	287.88436	-44.45526	726.19864	376.30999	-337.34392	755.66773	258.38781	-338.17137	593.81213	723.91333	-23.03087	563.17575	617.25656	-25.79061	504.42308	607.83095	10.01436	487.65759	748.83103	16.62489	454.89922	638.38855	9.92329	676.85913	748.51303	-342.32435	728.68677	623.22288	-327.62760	577.29210	710.48774	-376.67195	631.00172	580.20785	-356.51859	650.27591	890.49282	-49.68950	473.38066	950.29994	-132.19304	665.40539	902.63233	-297.70861	474.33791	947.21857	-248.57892	504.10581	1397.56101	-173.62469	580.09524	1364.34775	-32.00040	536.20082	1362.19539	-340.32714	630.39382	1339.35458	-173.17847	621.42935	1336.02255	-217.41254	606.37197	1237.40795	32.31115	526.73230	1040.36347	-1.48736	557.55550	1048.77287	65.36571	620.04569	938.57092	84.09201	665.42523	844.42139	85.77698	630.61943	833.36378	99.97261	521.07137	1216.49175	-411.54633	426.04388	1038.99229	-352.00107	422.27368	1055.55823	-422.78754	451.44953	966.80062	-468.22359	469.39841	838.57057	-478.71455	443.15738	838.09433	-492.54764	557.35544	826.69859	-87.05715	574.57928	828.81648	-275.64898	576.08938	836.61084	-83.35491	577.43239	832.27314	-247.47381	
